<?xml version="1.0" encoding="UTF-8" standalone="no"?>
<!DOCTYPE svg PUBLIC "-//W3C//DTD SVG 1.1//EN"
 "http://www.w3.org/Graphics/SVG/1.1/DTD/svg11.dtd">
<!-- Generated by graphviz version 2.44.0 ()
 -->
<!-- Title: tshirt::tshirt_model Pages: 1 -->
<svg width="997pt" height="1706pt"
 viewBox="0.00 0.00 997.00 1706.00" xmlns="http://www.w3.org/2000/svg" xmlns:xlink="http://www.w3.org/1999/xlink">
<g id="graph0" class="graph" transform="scale(1 1) rotate(0) translate(4 1702)">
<title>tshirt::tshirt_model</title>
<polygon fill="white" stroke="transparent" points="-4,4 -4,-1702 993,-1702 993,4 -4,4"/>
<!-- Node1 -->
<g id="node1" class="node">
<title>Node1</title>
<g id="a_node1"><a xlink:title="Tshirt model class.">
<polygon fill="#bfbfbf" stroke="black" points="187.5,-0.5 187.5,-321.5 332.5,-321.5 332.5,-0.5 187.5,-0.5"/>
<text text-anchor="middle" x="260" y="-309.5" font-family="Helvetica,sans-Serif" font-size="10.00">tshirt::tshirt_model</text>
<polyline fill="none" stroke="black" points="187.5,-302.5 332.5,-302.5 "/>
<text text-anchor="start" x="195.5" y="-290.5" font-family="Helvetica,sans-Serif" font-size="10.00">&#45; lf_outlet_index</text>
<text text-anchor="start" x="195.5" y="-279.5" font-family="Helvetica,sans-Serif" font-size="10.00">&#45; perc_outlet_index</text>
<text text-anchor="start" x="195.5" y="-268.5" font-family="Helvetica,sans-Serif" font-size="10.00">&#45; mass_check_error_bound</text>
<text text-anchor="start" x="195.5" y="-257.5" font-family="Helvetica,sans-Serif" font-size="10.00">&#45; soil_field_capacity</text>
<text text-anchor="start" x="195.5" y="-246.5" font-family="Helvetica,sans-Serif" font-size="10.00">_storage</text>
<polyline fill="none" stroke="black" points="187.5,-239.5 332.5,-239.5 "/>
<text text-anchor="start" x="195.5" y="-227.5" font-family="Helvetica,sans-Serif" font-size="10.00">+ tshirt_model()</text>
<text text-anchor="start" x="195.5" y="-216.5" font-family="Helvetica,sans-Serif" font-size="10.00">+ tshirt_model()</text>
<text text-anchor="start" x="195.5" y="-205.5" font-family="Helvetica,sans-Serif" font-size="10.00">+ calc_evapotranspiration()</text>
<text text-anchor="start" x="195.5" y="-194.5" font-family="Helvetica,sans-Serif" font-size="10.00">+ calc_soil_field_capacity</text>
<text text-anchor="start" x="195.5" y="-183.5" font-family="Helvetica,sans-Serif" font-size="10.00">_storage()</text>
<text text-anchor="start" x="195.5" y="-172.5" font-family="Helvetica,sans-Serif" font-size="10.00">+ get_current_state()</text>
<text text-anchor="start" x="195.5" y="-161.5" font-family="Helvetica,sans-Serif" font-size="10.00">+ get_fluxes()</text>
<text text-anchor="start" x="195.5" y="-150.5" font-family="Helvetica,sans-Serif" font-size="10.00">+ get_mass_check_error</text>
<text text-anchor="start" x="195.5" y="-139.5" font-family="Helvetica,sans-Serif" font-size="10.00">_bound()</text>
<text text-anchor="start" x="195.5" y="-128.5" font-family="Helvetica,sans-Serif" font-size="10.00">+ mass_check()</text>
<text text-anchor="start" x="195.5" y="-117.5" font-family="Helvetica,sans-Serif" font-size="10.00">+ run()</text>
<text text-anchor="start" x="195.5" y="-106.5" font-family="Helvetica,sans-Serif" font-size="10.00"># manage_state_before</text>
<text text-anchor="start" x="195.5" y="-95.5" font-family="Helvetica,sans-Serif" font-size="10.00">_next_time_step_run()</text>
<text text-anchor="start" x="195.5" y="-84.5" font-family="Helvetica,sans-Serif" font-size="10.00"># set_mass_check_error</text>
<text text-anchor="start" x="195.5" y="-73.5" font-family="Helvetica,sans-Serif" font-size="10.00">_bound()</text>
<text text-anchor="start" x="195.5" y="-62.5" font-family="Helvetica,sans-Serif" font-size="10.00">&#45; check_valid()</text>
<text text-anchor="start" x="195.5" y="-51.5" font-family="Helvetica,sans-Serif" font-size="10.00">&#45; initialize_groundwater</text>
<text text-anchor="start" x="195.5" y="-40.5" font-family="Helvetica,sans-Serif" font-size="10.00">_reservoir()</text>
<text text-anchor="start" x="195.5" y="-29.5" font-family="Helvetica,sans-Serif" font-size="10.00">&#45; initialize_soil_reservoir()</text>
<text text-anchor="start" x="195.5" y="-18.5" font-family="Helvetica,sans-Serif" font-size="10.00">&#45; initialize_subsurface</text>
<text text-anchor="start" x="195.5" y="-7.5" font-family="Helvetica,sans-Serif" font-size="10.00">_lateral_flow_nash_cascade()</text>
</a>
</g>
</g>
<!-- Node2 -->
<g id="node2" class="node">
<title>Node2</title>
<g id="a_node2"><a xlink:href="class_reservoir_1_1_explicit___time_1_1_reservoir.html" target="_top" xlink:title="Reservoir that has zero, one, or multiple outlets.">
<polygon fill="white" stroke="black" points="448,-810.5 448,-1043.5 568,-1043.5 568,-810.5 448,-810.5"/>
<text text-anchor="start" x="456" y="-1031.5" font-family="Helvetica,sans-Serif" font-size="10.00">Reservoir::Explicit</text>
<text text-anchor="middle" x="508" y="-1020.5" font-family="Helvetica,sans-Serif" font-size="10.00">_Time::Reservoir</text>
<polyline fill="none" stroke="black" points="448,-1013.5 568,-1013.5 "/>
<text text-anchor="middle" x="508" y="-1001.5" font-family="Helvetica,sans-Serif" font-size="10.00"> </text>
<polyline fill="none" stroke="black" points="448,-994.5 568,-994.5 "/>
<text text-anchor="start" x="456" y="-982.5" font-family="Helvetica,sans-Serif" font-size="10.00">+ Reservoir()</text>
<text text-anchor="start" x="456" y="-971.5" font-family="Helvetica,sans-Serif" font-size="10.00">+ Reservoir()</text>
<text text-anchor="start" x="456" y="-960.5" font-family="Helvetica,sans-Serif" font-size="10.00">+ Reservoir()</text>
<text text-anchor="start" x="456" y="-949.5" font-family="Helvetica,sans-Serif" font-size="10.00">+ Reservoir()</text>
<text text-anchor="start" x="456" y="-938.5" font-family="Helvetica,sans-Serif" font-size="10.00">+ response_meters_per</text>
<text text-anchor="start" x="456" y="-927.5" font-family="Helvetica,sans-Serif" font-size="10.00">_second()</text>
<text text-anchor="start" x="456" y="-916.5" font-family="Helvetica,sans-Serif" font-size="10.00">+ add_outlet()</text>
<text text-anchor="start" x="456" y="-905.5" font-family="Helvetica,sans-Serif" font-size="10.00">+ add_outlet()</text>
<text text-anchor="start" x="456" y="-894.5" font-family="Helvetica,sans-Serif" font-size="10.00">+ add_outlet()</text>
<text text-anchor="start" x="456" y="-883.5" font-family="Helvetica,sans-Serif" font-size="10.00">+ sort_outlets()</text>
<text text-anchor="start" x="456" y="-872.5" font-family="Helvetica,sans-Serif" font-size="10.00">+ check_highest_outlet</text>
<text text-anchor="start" x="456" y="-861.5" font-family="Helvetica,sans-Serif" font-size="10.00">_against_max_storage()</text>
<text text-anchor="start" x="456" y="-850.5" font-family="Helvetica,sans-Serif" font-size="10.00">+ get_storage_height</text>
<text text-anchor="start" x="456" y="-839.5" font-family="Helvetica,sans-Serif" font-size="10.00">_meters()</text>
<text text-anchor="start" x="456" y="-828.5" font-family="Helvetica,sans-Serif" font-size="10.00">+ velocity_meters_per</text>
<text text-anchor="start" x="456" y="-817.5" font-family="Helvetica,sans-Serif" font-size="10.00">_second_for_outlet()</text>
</a>
</g>
</g>
<!-- Node2&#45;&gt;Node1 -->
<g id="edge1" class="edge">
<title>Node2&#45;&gt;Node1</title>
<path fill="none" stroke="#404040" d="M470.47,-810.38C429.3,-683.56 362.82,-478.74 315.6,-333.27"/>
<polygon fill="none" stroke="#404040" points="315.51,-333 309.85,-328.53 311.8,-321.58 317.46,-326.06 315.51,-333"/>
<text text-anchor="middle" x="471" y="-657" font-family="Helvetica,sans-Serif" font-size="10.00"> &#45;groundwater_reservoir</text>
<text text-anchor="middle" x="471" y="-646" font-family="Helvetica,sans-Serif" font-size="10.00">&#45;soil_reservoir</text>
</g>
<!-- Node13 -->
<g id="node13" class="node">
<title>Node13</title>
<g id="a_node13"><a xlink:title=" ">
<polygon fill="white" stroke="#bfbfbf" points="534.5,-683.5 534.5,-751.5 667.5,-751.5 667.5,-683.5 534.5,-683.5"/>
<text text-anchor="start" x="542.5" y="-739.5" font-family="Helvetica,sans-Serif" font-size="10.00">std::unique_ptr&lt; Reservoir</text>
<text text-anchor="middle" x="601" y="-728.5" font-family="Helvetica,sans-Serif" font-size="10.00">::Explicit_Time::Reservoir &gt;</text>
<polyline fill="none" stroke="#bfbfbf" points="534.5,-721.5 667.5,-721.5 "/>
<text text-anchor="middle" x="601" y="-709.5" font-family="Helvetica,sans-Serif" font-size="10.00"> </text>
<polyline fill="none" stroke="#bfbfbf" points="534.5,-702.5 667.5,-702.5 "/>
<text text-anchor="start" x="542.5" y="-690.5" font-family="Helvetica,sans-Serif" font-size="10.00">+ operator&#45;&gt;()</text>
</a>
</g>
</g>
<!-- Node2&#45;&gt;Node13 -->
<g id="edge14" class="edge">
<title>Node2&#45;&gt;Node13</title>
<path fill="none" stroke="#404040" d="M559.8,-810.42C567.36,-793.55 574.73,-777.11 581.1,-762.9"/>
<polygon fill="none" stroke="#404040" points="581.29,-762.48 580.09,-755.37 586.19,-751.53 587.39,-758.64 581.29,-762.48"/>
<text text-anchor="middle" x="586" y="-778.5" font-family="Helvetica,sans-Serif" font-size="10.00"> +ptr</text>
</g>
<!-- Node3 -->
<g id="node3" class="node">
<title>Node3</title>
<g id="a_node3"><a xlink:href="structreservoir__state.html" target="_top" xlink:title=" ">
<polygon fill="white" stroke="black" points="446,-1091.5 446,-1159.5 570,-1159.5 570,-1091.5 446,-1091.5"/>
<text text-anchor="middle" x="508" y="-1147.5" font-family="Helvetica,sans-Serif" font-size="10.00">reservoir_state</text>
<polyline fill="none" stroke="black" points="446,-1140.5 570,-1140.5 "/>
<text text-anchor="start" x="454" y="-1128.5" font-family="Helvetica,sans-Serif" font-size="10.00">+ current_storage_height</text>
<text text-anchor="start" x="454" y="-1117.5" font-family="Helvetica,sans-Serif" font-size="10.00">_meters</text>
<polyline fill="none" stroke="black" points="446,-1110.5 570,-1110.5 "/>
<text text-anchor="middle" x="508" y="-1098.5" font-family="Helvetica,sans-Serif" font-size="10.00"> </text>
</a>
</g>
</g>
<!-- Node3&#45;&gt;Node2 -->
<g id="edge2" class="edge">
<title>Node3&#45;&gt;Node2</title>
<path fill="none" stroke="#404040" d="M508,-1091.17C508,-1080.77 508,-1068.62 508,-1055.72"/>
<polygon fill="none" stroke="#404040" points="508,-1055.7 504,-1049.7 508,-1043.7 512,-1049.7 508,-1055.7"/>
<text text-anchor="middle" x="522" y="-1065" font-family="Helvetica,sans-Serif" font-size="10.00"> &#45;state</text>
</g>
<!-- Node4 -->
<g id="node4" class="node">
<title>Node4</title>
<g id="a_node4"><a xlink:title=" ">
<polygon fill="white" stroke="#bfbfbf" points="588.5,-1091.5 588.5,-1159.5 719.5,-1159.5 719.5,-1091.5 588.5,-1091.5"/>
<text text-anchor="start" x="596.5" y="-1147.5" font-family="Helvetica,sans-Serif" font-size="10.00">std::vector&lt; std::shared</text>
<text text-anchor="middle" x="654" y="-1136.5" font-family="Helvetica,sans-Serif" font-size="10.00">_ptr&lt; Reservoir_Outlet &gt; &gt;</text>
<polyline fill="none" stroke="#bfbfbf" points="588.5,-1129.5 719.5,-1129.5 "/>
<text text-anchor="middle" x="654" y="-1117.5" font-family="Helvetica,sans-Serif" font-size="10.00"> </text>
<polyline fill="none" stroke="#bfbfbf" points="588.5,-1110.5 719.5,-1110.5 "/>
<text text-anchor="middle" x="654" y="-1098.5" font-family="Helvetica,sans-Serif" font-size="10.00"> </text>
</a>
</g>
</g>
<!-- Node4&#45;&gt;Node2 -->
<g id="edge3" class="edge">
<title>Node4&#45;&gt;Node2</title>
<path fill="none" stroke="#404040" d="M629.23,-1091.17C614.37,-1071.17 594.68,-1044.67 575.51,-1018.85"/>
<polygon fill="none" stroke="#404040" points="575.35,-1018.64 568.56,-1016.21 568.19,-1009.01 574.98,-1011.44 575.35,-1018.64"/>
<text text-anchor="middle" x="631.5" y="-1065" font-family="Helvetica,sans-Serif" font-size="10.00"> &#45;outlets</text>
</g>
<!-- Node5 -->
<g id="node5" class="node">
<title>Node5</title>
<g id="a_node5"><a xlink:title=" ">
<polygon fill="white" stroke="#bfbfbf" points="504,-1218.5 504,-1286.5 634,-1286.5 634,-1218.5 504,-1218.5"/>
<text text-anchor="start" x="512" y="-1274.5" font-family="Helvetica,sans-Serif" font-size="10.00">std::shared_ptr&lt; Reservoir</text>
<text text-anchor="middle" x="569" y="-1263.5" font-family="Helvetica,sans-Serif" font-size="10.00">_Outlet &gt;</text>
<polyline fill="none" stroke="#bfbfbf" points="504,-1256.5 634,-1256.5 "/>
<text text-anchor="middle" x="569" y="-1244.5" font-family="Helvetica,sans-Serif" font-size="10.00"> </text>
<polyline fill="none" stroke="#bfbfbf" points="504,-1237.5 634,-1237.5 "/>
<text text-anchor="start" x="512" y="-1225.5" font-family="Helvetica,sans-Serif" font-size="10.00">+ operator&#45;&gt;()</text>
</a>
</g>
</g>
<!-- Node5&#45;&gt;Node4 -->
<g id="edge4" class="edge">
<title>Node5&#45;&gt;Node4</title>
<path fill="none" stroke="#404040" d="M562.78,-1218.22C561.94,-1204.93 563.19,-1189.98 570,-1178 572.57,-1173.48 575.71,-1169.31 579.25,-1165.47"/>
<polygon fill="none" stroke="#404040" points="579.42,-1165.31 581.06,-1158.29 588.17,-1157.1 586.53,-1164.12 579.42,-1165.31"/>
<text text-anchor="middle" x="594.5" y="-1186.5" font-family="Helvetica,sans-Serif" font-size="10.00"> +elements</text>
</g>
<!-- Node6 -->
<g id="node6" class="node">
<title>Node6</title>
<g id="a_node6"><a xlink:href="class_reservoir_1_1_implicit___time_1_1_reservoir___outlet.html" target="_top" xlink:title="Base Single Reservior Outlet Class.">
<polygon fill="white" stroke="black" points="562.5,-1381.5 562.5,-1592.5 699.5,-1592.5 699.5,-1381.5 562.5,-1381.5"/>
<text text-anchor="start" x="570.5" y="-1580.5" font-family="Helvetica,sans-Serif" font-size="10.00">Reservoir::Implicit</text>
<text text-anchor="middle" x="631" y="-1569.5" font-family="Helvetica,sans-Serif" font-size="10.00">_Time::Reservoir_Outlet</text>
<polyline fill="none" stroke="black" points="562.5,-1562.5 699.5,-1562.5 "/>
<text text-anchor="start" x="570.5" y="-1550.5" font-family="Helvetica,sans-Serif" font-size="10.00"># a</text>
<text text-anchor="start" x="570.5" y="-1539.5" font-family="Helvetica,sans-Serif" font-size="10.00"># b</text>
<text text-anchor="start" x="570.5" y="-1528.5" font-family="Helvetica,sans-Serif" font-size="10.00"># activation_threshold</text>
<text text-anchor="start" x="570.5" y="-1517.5" font-family="Helvetica,sans-Serif" font-size="10.00">_meters</text>
<text text-anchor="start" x="570.5" y="-1506.5" font-family="Helvetica,sans-Serif" font-size="10.00"># max_flux_meters</text>
<text text-anchor="start" x="570.5" y="-1495.5" font-family="Helvetica,sans-Serif" font-size="10.00"># flux_meters_local</text>
<polyline fill="none" stroke="black" points="562.5,-1488.5 699.5,-1488.5 "/>
<text text-anchor="start" x="570.5" y="-1476.5" font-family="Helvetica,sans-Serif" font-size="10.00">+ Reservoir_Outlet()</text>
<text text-anchor="start" x="570.5" y="-1465.5" font-family="Helvetica,sans-Serif" font-size="10.00">+ Reservoir_Outlet()</text>
<text text-anchor="start" x="570.5" y="-1454.5" font-family="Helvetica,sans-Serif" font-size="10.00">+ adjust_flux()</text>
<text text-anchor="start" x="570.5" y="-1443.5" font-family="Helvetica,sans-Serif" font-size="10.00">+ get_activation_threshold</text>
<text text-anchor="start" x="570.5" y="-1432.5" font-family="Helvetica,sans-Serif" font-size="10.00">_meters()</text>
<text text-anchor="start" x="570.5" y="-1421.5" font-family="Helvetica,sans-Serif" font-size="10.00">+ get_previously_calculated</text>
<text text-anchor="start" x="570.5" y="-1410.5" font-family="Helvetica,sans-Serif" font-size="10.00">_flux_meters()</text>
<text text-anchor="start" x="570.5" y="-1399.5" font-family="Helvetica,sans-Serif" font-size="10.00">+ flux_meters()</text>
<text text-anchor="start" x="570.5" y="-1388.5" font-family="Helvetica,sans-Serif" font-size="10.00"># calc_flux_meters_local()</text>
</a>
</g>
</g>
<!-- Node6&#45;&gt;Node5 -->
<g id="edge5" class="edge">
<title>Node6&#45;&gt;Node5</title>
<path fill="none" stroke="#404040" d="M627.9,-1381.13C624.55,-1355.53 618.76,-1328.71 609,-1305 607.85,-1302.21 606.5,-1299.44 605.02,-1296.71"/>
<polygon fill="none" stroke="#404040" points="605.01,-1296.71 598.45,-1293.71 598.69,-1286.51 605.25,-1289.5 605.01,-1296.71"/>
<text text-anchor="middle" x="635" y="-1331.5" font-family="Helvetica,sans-Serif" font-size="10.00"> +ptr</text>
</g>
<!-- Node7 -->
<g id="node7" class="node">
<title>Node7</title>
<g id="a_node7"><a xlink:title="STL class.">
<polygon fill="white" stroke="#bfbfbf" points="394.5,-1458.5 394.5,-1515.5 497.5,-1515.5 497.5,-1458.5 394.5,-1458.5"/>
<text text-anchor="middle" x="446" y="-1503.5" font-family="Helvetica,sans-Serif" font-size="10.00">std::shared_ptr&lt; T &gt;</text>
<polyline fill="none" stroke="#bfbfbf" points="394.5,-1496.5 497.5,-1496.5 "/>
<text text-anchor="middle" x="446" y="-1484.5" font-family="Helvetica,sans-Serif" font-size="10.00"> </text>
<polyline fill="none" stroke="#bfbfbf" points="394.5,-1477.5 497.5,-1477.5 "/>
<text text-anchor="start" x="402.5" y="-1465.5" font-family="Helvetica,sans-Serif" font-size="10.00">+ operator&#45;&gt;()</text>
</a>
</g>
</g>
<!-- Node7&#45;&gt;Node5 -->
<g id="edge6" class="edge">
<title>Node7&#45;&gt;Node5</title>
<path fill="none" stroke="orange" d="M461.15,-1448.78C470.88,-1424.49 483.59,-1392.02 494,-1363 503.16,-1337.47 498.32,-1327.81 513,-1305 517.15,-1298.56 522.29,-1292.39 527.76,-1286.71"/>
<polygon fill="orange" stroke="orange" points="457.79,-1447.74 457.31,-1458.32 464.29,-1450.35 457.79,-1447.74"/>
<text text-anchor="middle" x="559" y="-1331.5" font-family="Helvetica,sans-Serif" font-size="10.00"> &lt; Reservoir_Outlet &gt;</text>
</g>
<!-- Node15 -->
<g id="node15" class="node">
<title>Node15</title>
<g id="a_node15"><a xlink:title=" ">
<polygon fill="white" stroke="#bfbfbf" points="13,-1218.5 13,-1286.5 123,-1286.5 123,-1218.5 13,-1218.5"/>
<text text-anchor="start" x="21" y="-1274.5" font-family="Helvetica,sans-Serif" font-size="10.00">std::shared_ptr&lt; tshirt</text>
<text text-anchor="middle" x="68" y="-1263.5" font-family="Helvetica,sans-Serif" font-size="10.00">::tshirt_fluxes &gt;</text>
<polyline fill="none" stroke="#bfbfbf" points="13,-1256.5 123,-1256.5 "/>
<text text-anchor="middle" x="68" y="-1244.5" font-family="Helvetica,sans-Serif" font-size="10.00"> </text>
<polyline fill="none" stroke="#bfbfbf" points="13,-1237.5 123,-1237.5 "/>
<text text-anchor="start" x="21" y="-1225.5" font-family="Helvetica,sans-Serif" font-size="10.00">+ operator&#45;&gt;()</text>
</a>
</g>
</g>
<!-- Node7&#45;&gt;Node15 -->
<g id="edge20" class="edge">
<title>Node7&#45;&gt;Node15</title>
<path fill="none" stroke="orange" d="M406.17,-1451.83C380.02,-1430.22 344.57,-1402.42 311,-1381 296.25,-1371.59 287.35,-1376.31 276,-1363 258.4,-1342.36 276.66,-1323.69 257,-1305 254.48,-1302.61 178.09,-1282.26 123.21,-1267.87"/>
<polygon fill="orange" stroke="orange" points="404.05,-1454.62 413.97,-1458.33 408.52,-1449.24 404.05,-1454.62"/>
<text text-anchor="middle" x="324.5" y="-1331.5" font-family="Helvetica,sans-Serif" font-size="10.00"> &lt; tshirt::tshirt_fluxes &gt;</text>
</g>
<!-- Node17 -->
<g id="node17" class="node">
<title>Node17</title>
<g id="a_node17"><a xlink:title=" ">
<polygon fill="white" stroke="#bfbfbf" points="205,-1218.5 205,-1286.5 315,-1286.5 315,-1218.5 205,-1218.5"/>
<text text-anchor="start" x="213" y="-1274.5" font-family="Helvetica,sans-Serif" font-size="10.00">std::shared_ptr&lt; tshirt</text>
<text text-anchor="middle" x="260" y="-1263.5" font-family="Helvetica,sans-Serif" font-size="10.00">::tshirt_state &gt;</text>
<polyline fill="none" stroke="#bfbfbf" points="205,-1256.5 315,-1256.5 "/>
<text text-anchor="middle" x="260" y="-1244.5" font-family="Helvetica,sans-Serif" font-size="10.00"> </text>
<polyline fill="none" stroke="#bfbfbf" points="205,-1237.5 315,-1237.5 "/>
<text text-anchor="start" x="213" y="-1225.5" font-family="Helvetica,sans-Serif" font-size="10.00">+ operator&#45;&gt;()</text>
</a>
</g>
</g>
<!-- Node7&#45;&gt;Node17 -->
<g id="edge23" class="edge">
<title>Node7&#45;&gt;Node17</title>
<path fill="none" stroke="orange" d="M430.11,-1448.84C419.92,-1424.57 406.67,-1392.1 396,-1363 386.66,-1337.53 395.22,-1325.1 377,-1305 360.68,-1286.99 336.91,-1274.97 315.06,-1267.1"/>
<polygon fill="orange" stroke="orange" points="427.02,-1450.51 434.13,-1458.37 433.47,-1447.8 427.02,-1450.51"/>
<text text-anchor="middle" x="443" y="-1331.5" font-family="Helvetica,sans-Serif" font-size="10.00"> &lt; tshirt::tshirt_state &gt;</text>
</g>
<!-- Node8 -->
<g id="node8" class="node">
<title>Node8</title>
<g id="a_node8"><a xlink:title=" ">
<polygon fill="white" stroke="#bfbfbf" points="729.5,-1640.5 729.5,-1697.5 758.5,-1697.5 758.5,-1640.5 729.5,-1640.5"/>
<text text-anchor="middle" x="744" y="-1685.5" font-family="Helvetica,sans-Serif" font-size="10.00">T</text>
<polyline fill="none" stroke="#bfbfbf" points="729.5,-1678.5 758.5,-1678.5 "/>
<text text-anchor="middle" x="744" y="-1666.5" font-family="Helvetica,sans-Serif" font-size="10.00"> </text>
<polyline fill="none" stroke="#bfbfbf" points="729.5,-1659.5 758.5,-1659.5 "/>
<text text-anchor="middle" x="744" y="-1647.5" font-family="Helvetica,sans-Serif" font-size="10.00"> </text>
</a>
</g>
</g>
<!-- Node8&#45;&gt;Node7 -->
<g id="edge7" class="edge">
<title>Node8&#45;&gt;Node7</title>
<path fill="none" stroke="#404040" d="M729.25,-1664.33C696.03,-1655.62 613.57,-1631.49 554,-1593 524.98,-1574.25 497.15,-1546.88 477,-1524.79"/>
<polygon fill="none" stroke="#404040" points="476.86,-1524.63 469.88,-1522.83 468.86,-1515.69 475.84,-1517.49 476.86,-1524.63"/>
<text text-anchor="middle" x="613" y="-1614" font-family="Helvetica,sans-Serif" font-size="10.00"> +ptr</text>
</g>
<!-- Node9 -->
<g id="node9" class="node">
<title>Node9</title>
<g id="a_node9"><a xlink:title="STL class.">
<polygon fill="white" stroke="#bfbfbf" points="702,-1224 702,-1281 786,-1281 786,-1224 702,-1224"/>
<text text-anchor="middle" x="744" y="-1269" font-family="Helvetica,sans-Serif" font-size="10.00">std::vector&lt; T &gt;</text>
<polyline fill="none" stroke="#bfbfbf" points="702,-1262 786,-1262 "/>
<text text-anchor="middle" x="744" y="-1250" font-family="Helvetica,sans-Serif" font-size="10.00"> </text>
<polyline fill="none" stroke="#bfbfbf" points="702,-1243 786,-1243 "/>
<text text-anchor="middle" x="744" y="-1231" font-family="Helvetica,sans-Serif" font-size="10.00"> </text>
</a>
</g>
</g>
<!-- Node8&#45;&gt;Node9 -->
<g id="edge9" class="edge">
<title>Node8&#45;&gt;Node9</title>
<path fill="none" stroke="#404040" d="M744,-1640.48C744,-1568.92 744,-1376.78 744,-1293.22"/>
<polygon fill="none" stroke="#404040" points="744,-1293.01 740,-1287.01 744,-1281.01 748,-1287.01 744,-1293.01"/>
<text text-anchor="middle" x="768.5" y="-1484.5" font-family="Helvetica,sans-Serif" font-size="10.00"> +elements</text>
</g>
<!-- Node14 -->
<g id="node14" class="node">
<title>Node14</title>
<g id="a_node14"><a xlink:title="STL class.">
<polygon fill="white" stroke="#bfbfbf" points="830,-1305.5 830,-1362.5 932,-1362.5 932,-1305.5 830,-1305.5"/>
<text text-anchor="middle" x="881" y="-1350.5" font-family="Helvetica,sans-Serif" font-size="10.00">std::unique_ptr&lt; T &gt;</text>
<polyline fill="none" stroke="#bfbfbf" points="830,-1343.5 932,-1343.5 "/>
<text text-anchor="middle" x="881" y="-1331.5" font-family="Helvetica,sans-Serif" font-size="10.00"> </text>
<polyline fill="none" stroke="#bfbfbf" points="830,-1324.5 932,-1324.5 "/>
<text text-anchor="start" x="838" y="-1312.5" font-family="Helvetica,sans-Serif" font-size="10.00">+ operator&#45;&gt;()</text>
</a>
</g>
</g>
<!-- Node8&#45;&gt;Node14 -->
<g id="edge16" class="edge">
<title>Node8&#45;&gt;Node14</title>
<path fill="none" stroke="#404040" d="M758.69,-1650.48C770.36,-1635.86 786.42,-1614.09 797,-1593 833.78,-1519.68 859.39,-1426.73 872.01,-1374.78"/>
<polygon fill="none" stroke="#404040" points="872.08,-1374.47 869.58,-1367.71 874.86,-1362.8 877.36,-1369.56 872.08,-1374.47"/>
<text text-anchor="middle" x="796" y="-1614" font-family="Helvetica,sans-Serif" font-size="10.00"> +ptr</text>
</g>
<!-- Node9&#45;&gt;Node4 -->
<g id="edge8" class="edge">
<title>Node9&#45;&gt;Node4</title>
<path fill="none" stroke="orange" d="M692.55,-1238.12C673.24,-1230.33 653.26,-1218.29 642,-1200 634.68,-1188.11 635.67,-1173.17 639.27,-1159.87"/>
<polygon fill="orange" stroke="orange" points="691.35,-1241.41 701.94,-1241.62 693.79,-1234.85 691.35,-1241.41"/>
<text text-anchor="start" x="642" y="-1192" font-family="Helvetica,sans-Serif" font-size="10.00"> &lt; std::shared_ptr&lt;</text>
<text text-anchor="middle" x="688" y="-1181" font-family="Helvetica,sans-Serif" font-size="10.00"> Reservoir_Outlet &gt; &gt;</text>
</g>
<!-- Node12 -->
<g id="node12" class="node">
<title>Node12</title>
<g id="a_node12"><a xlink:title=" ">
<polygon fill="white" stroke="#bfbfbf" points="542,-457.5 542,-536.5 660,-536.5 660,-457.5 542,-457.5"/>
<text text-anchor="start" x="550" y="-524.5" font-family="Helvetica,sans-Serif" font-size="10.00">std::vector&lt; unique</text>
<text text-anchor="start" x="550" y="-513.5" font-family="Helvetica,sans-Serif" font-size="10.00">_ptr&lt; Reservoir::Explicit</text>
<text text-anchor="middle" x="601" y="-502.5" font-family="Helvetica,sans-Serif" font-size="10.00">_Time::Reservoir &gt; &gt;</text>
<polyline fill="none" stroke="#bfbfbf" points="542,-495.5 660,-495.5 "/>
<text text-anchor="middle" x="601" y="-483.5" font-family="Helvetica,sans-Serif" font-size="10.00"> </text>
<polyline fill="none" stroke="#bfbfbf" points="542,-476.5 660,-476.5 "/>
<text text-anchor="middle" x="601" y="-464.5" font-family="Helvetica,sans-Serif" font-size="10.00"> </text>
</a>
</g>
</g>
<!-- Node9&#45;&gt;Node12 -->
<g id="edge17" class="edge">
<title>Node9&#45;&gt;Node12</title>
<path fill="none" stroke="orange" d="M745.84,-1213.63C746.89,-1188.85 748,-1155.76 748,-1126.5 748,-1126.5 748,-1126.5 748,-716.5 748,-643.58 690.94,-576.7 647.92,-536.65"/>
<polygon fill="orange" stroke="orange" points="742.34,-1213.56 745.4,-1223.71 749.33,-1213.87 742.34,-1213.56"/>
<text text-anchor="start" x="748" y="-930" font-family="Helvetica,sans-Serif" font-size="10.00"> &lt; unique_ptr&lt; Reservoir</text>
<text text-anchor="middle" x="810.5" y="-919" font-family="Helvetica,sans-Serif" font-size="10.00">::Explicit_Time::Reservoir &gt; &gt;</text>
</g>
<!-- Node10 -->
<g id="node10" class="node">
<title>Node10</title>
<g id="a_node10"><a xlink:href="structreservoir__parameters.html" target="_top" xlink:title=" ">
<polygon fill="white" stroke="black" points="288,-1091.5 288,-1159.5 428,-1159.5 428,-1091.5 288,-1091.5"/>
<text text-anchor="middle" x="358" y="-1147.5" font-family="Helvetica,sans-Serif" font-size="10.00">reservoir_parameters</text>
<polyline fill="none" stroke="black" points="288,-1140.5 428,-1140.5 "/>
<text text-anchor="start" x="296" y="-1128.5" font-family="Helvetica,sans-Serif" font-size="10.00">+ minimum_storage_meters</text>
<text text-anchor="start" x="296" y="-1117.5" font-family="Helvetica,sans-Serif" font-size="10.00">+ maximum_storage_meters</text>
<polyline fill="none" stroke="black" points="288,-1110.5 428,-1110.5 "/>
<text text-anchor="middle" x="358" y="-1098.5" font-family="Helvetica,sans-Serif" font-size="10.00"> </text>
</a>
</g>
</g>
<!-- Node10&#45;&gt;Node2 -->
<g id="edge10" class="edge">
<title>Node10&#45;&gt;Node2</title>
<path fill="none" stroke="#404040" d="M383.45,-1091.17C399.15,-1070.59 420.11,-1043.14 440.35,-1016.63"/>
<polygon fill="none" stroke="#404040" points="440.48,-1016.46 440.94,-1009.26 447.76,-1006.92 447.3,-1014.11 440.48,-1016.46"/>
<text text-anchor="middle" x="429.5" y="-1065" font-family="Helvetica,sans-Serif" font-size="10.00"> &#45;parameters</text>
</g>
<!-- Node11 -->
<g id="node11" class="node">
<title>Node11</title>
<g id="a_node11"><a xlink:href="structtshirt_1_1tshirt__params.html" target="_top" xlink:title="Structure for containing and organizing the parameters of the Tshirt hydrological model.">
<polygon fill="white" stroke="black" points="92.5,-369.5 92.5,-624.5 231.5,-624.5 231.5,-369.5 92.5,-369.5"/>
<text text-anchor="middle" x="162" y="-612.5" font-family="Helvetica,sans-Serif" font-size="10.00">tshirt::tshirt_params</text>
<polyline fill="none" stroke="black" points="92.5,-605.5 231.5,-605.5 "/>
<text text-anchor="start" x="100.5" y="-593.5" font-family="Helvetica,sans-Serif" font-size="10.00">+ maxsmc</text>
<text text-anchor="start" x="100.5" y="-582.5" font-family="Helvetica,sans-Serif" font-size="10.00">+ wltsmc</text>
<text text-anchor="start" x="100.5" y="-571.5" font-family="Helvetica,sans-Serif" font-size="10.00">+ satdk</text>
<text text-anchor="start" x="100.5" y="-560.5" font-family="Helvetica,sans-Serif" font-size="10.00">+ satpsi</text>
<text text-anchor="start" x="100.5" y="-549.5" font-family="Helvetica,sans-Serif" font-size="10.00">+ slope</text>
<text text-anchor="start" x="100.5" y="-538.5" font-family="Helvetica,sans-Serif" font-size="10.00">+ b</text>
<text text-anchor="start" x="100.5" y="-527.5" font-family="Helvetica,sans-Serif" font-size="10.00">+ multiplier</text>
<text text-anchor="start" x="100.5" y="-516.5" font-family="Helvetica,sans-Serif" font-size="10.00">+ alpha_fc</text>
<text text-anchor="start" x="100.5" y="-505.5" font-family="Helvetica,sans-Serif" font-size="10.00">+ Klf</text>
<text text-anchor="start" x="100.5" y="-494.5" font-family="Helvetica,sans-Serif" font-size="10.00">+ Kn</text>
<text text-anchor="start" x="100.5" y="-483.5" font-family="Helvetica,sans-Serif" font-size="10.00">+ nash_n</text>
<text text-anchor="start" x="100.5" y="-472.5" font-family="Helvetica,sans-Serif" font-size="10.00">+ Cgw</text>
<text text-anchor="start" x="100.5" y="-461.5" font-family="Helvetica,sans-Serif" font-size="10.00">+ Cschaake</text>
<text text-anchor="start" x="100.5" y="-450.5" font-family="Helvetica,sans-Serif" font-size="10.00">+ expon</text>
<text text-anchor="start" x="100.5" y="-439.5" font-family="Helvetica,sans-Serif" font-size="10.00">+ max_soil_storage_meters</text>
<text text-anchor="start" x="100.5" y="-428.5" font-family="Helvetica,sans-Serif" font-size="10.00">+ max_groundwater_storage</text>
<text text-anchor="start" x="100.5" y="-417.5" font-family="Helvetica,sans-Serif" font-size="10.00">_meters</text>
<text text-anchor="start" x="100.5" y="-406.5" font-family="Helvetica,sans-Serif" font-size="10.00">+ max_lateral_flow</text>
<text text-anchor="start" x="100.5" y="-395.5" font-family="Helvetica,sans-Serif" font-size="10.00">+ depth</text>
<polyline fill="none" stroke="black" points="92.5,-388.5 231.5,-388.5 "/>
<text text-anchor="start" x="100.5" y="-376.5" font-family="Helvetica,sans-Serif" font-size="10.00">+ tshirt_params()</text>
</a>
</g>
</g>
<!-- Node11&#45;&gt;Node1 -->
<g id="edge11" class="edge">
<title>Node11&#45;&gt;Node1</title>
<path fill="none" stroke="#404040" d="M169.56,-369.32C171.31,-359.32 173.43,-349.45 176,-340 178.16,-332.04 180.66,-324.01 183.42,-315.97"/>
<polygon fill="none" stroke="#404040" points="183.43,-315.92 181.69,-308.93 187.47,-304.63 189.22,-311.62 183.43,-315.92"/>
<text text-anchor="middle" x="211" y="-343" font-family="Helvetica,sans-Serif" font-size="10.00"> &#45;model_params</text>
</g>
<!-- Node12&#45;&gt;Node1 -->
<g id="edge12" class="edge">
<title>Node12&#45;&gt;Node1</title>
<path fill="none" stroke="#404040" d="M561.55,-457.36C508,-404.91 411.03,-309.93 341.5,-241.82"/>
<polygon fill="none" stroke="#404040" points="341.3,-241.63 334.22,-240.29 332.73,-233.24 339.82,-234.58 341.3,-241.63"/>
<text text-anchor="middle" x="488" y="-343" font-family="Helvetica,sans-Serif" font-size="10.00"> &#45;soil_lf_nash_res</text>
</g>
<!-- Node13&#45;&gt;Node12 -->
<g id="edge13" class="edge">
<title>Node13&#45;&gt;Node12</title>
<path fill="none" stroke="#404040" d="M601,-683.31C601,-647.53 601,-590.14 601,-548.7"/>
<polygon fill="none" stroke="#404040" points="601,-548.67 597,-542.67 601,-536.67 605,-542.67 601,-548.67"/>
<text text-anchor="middle" x="625.5" y="-651.5" font-family="Helvetica,sans-Serif" font-size="10.00"> +elements</text>
</g>
<!-- Node14&#45;&gt;Node13 -->
<g id="edge15" class="edge">
<title>Node14&#45;&gt;Node13</title>
<path fill="none" stroke="orange" d="M889.15,-1295.47C894.69,-1266.74 901,-1226.06 901,-1190 901,-1190 901,-1190 901,-926 901,-873.35 912,-849.32 877,-810 823.88,-750.33 730.97,-729.47 667.76,-722.23"/>
<polygon fill="orange" stroke="orange" points="885.68,-1294.99 887.16,-1305.48 892.55,-1296.35 885.68,-1294.99"/>
<text text-anchor="start" x="901" y="-1128.5" font-family="Helvetica,sans-Serif" font-size="10.00"> &lt; Reservoir::Explicit</text>
<text text-anchor="middle" x="945" y="-1117.5" font-family="Helvetica,sans-Serif" font-size="10.00">_Time::Reservoir &gt;</text>
</g>
<!-- Node15&#45;&gt;Node1 -->
<g id="edge18" class="edge">
<title>Node15&#45;&gt;Node1</title>
<path fill="none" stroke="#404040" d="M66.36,-1218.35C65.26,-1193.16 64,-1157.66 64,-1126.5 64,-1126.5 64,-1126.5 64,-496 64,-438.93 59.31,-420.93 83,-369 105.52,-319.62 143.43,-272.92 178.4,-236.41"/>
<polygon fill="none" stroke="#404040" points="178.84,-235.95 180.16,-228.86 187.21,-227.35 185.89,-234.44 178.84,-235.95"/>
<text text-anchor="middle" x="79.5" y="-778.5" font-family="Helvetica,sans-Serif" font-size="10.00"> &#45;fluxes</text>
</g>
<!-- Node16 -->
<g id="node16" class="node">
<title>Node16</title>
<g id="a_node16"><a xlink:href="structtshirt_1_1tshirt__fluxes.html" target="_top" xlink:title="Structure for containing and organizing the calculated flux values of the Tshirt hydrological model.">
<polygon fill="white" stroke="black" points="0,-1414.5 0,-1559.5 136,-1559.5 136,-1414.5 0,-1414.5"/>
<text text-anchor="middle" x="68" y="-1547.5" font-family="Helvetica,sans-Serif" font-size="10.00">tshirt::tshirt_fluxes</text>
<polyline fill="none" stroke="black" points="0,-1540.5 136,-1540.5 "/>
<text text-anchor="start" x="8" y="-1528.5" font-family="Helvetica,sans-Serif" font-size="10.00">+ surface_runoff_meters</text>
<text text-anchor="start" x="8" y="-1517.5" font-family="Helvetica,sans-Serif" font-size="10.00">_per_second</text>
<text text-anchor="start" x="8" y="-1506.5" font-family="Helvetica,sans-Serif" font-size="10.00">+ groundwater_flow_meters</text>
<text text-anchor="start" x="8" y="-1495.5" font-family="Helvetica,sans-Serif" font-size="10.00">_per_second</text>
<text text-anchor="start" x="8" y="-1484.5" font-family="Helvetica,sans-Serif" font-size="10.00">+ soil_percolation_flow</text>
<text text-anchor="start" x="8" y="-1473.5" font-family="Helvetica,sans-Serif" font-size="10.00">_meters_per_second</text>
<text text-anchor="start" x="8" y="-1462.5" font-family="Helvetica,sans-Serif" font-size="10.00">+ soil_lateral_flow_meters</text>
<text text-anchor="start" x="8" y="-1451.5" font-family="Helvetica,sans-Serif" font-size="10.00">_per_second</text>
<text text-anchor="start" x="8" y="-1440.5" font-family="Helvetica,sans-Serif" font-size="10.00">+ et_loss_meters</text>
<polyline fill="none" stroke="black" points="0,-1433.5 136,-1433.5 "/>
<text text-anchor="start" x="8" y="-1421.5" font-family="Helvetica,sans-Serif" font-size="10.00">+ tshirt_fluxes()</text>
</a>
</g>
</g>
<!-- Node16&#45;&gt;Node15 -->
<g id="edge19" class="edge">
<title>Node16&#45;&gt;Node15</title>
<path fill="none" stroke="#404040" d="M68,-1414.35C68,-1376.77 68,-1331.87 68,-1299.07"/>
<polygon fill="none" stroke="#404040" points="68,-1298.69 64,-1292.69 68,-1286.69 72,-1292.69 68,-1298.69"/>
<text text-anchor="middle" x="78" y="-1331.5" font-family="Helvetica,sans-Serif" font-size="10.00"> +ptr</text>
</g>
<!-- Node17&#45;&gt;Node1 -->
<g id="edge21" class="edge">
<title>Node17&#45;&gt;Node1</title>
<path fill="none" stroke="#404040" d="M260,-1218.34C260,-1193.15 260,-1157.64 260,-1126.5 260,-1126.5 260,-1126.5 260,-496 260,-443.28 260,-385.88 260,-333.77"/>
<polygon fill="none" stroke="#404040" points="260,-333.7 256,-327.7 260,-321.7 264,-327.7 260,-333.7"/>
<text text-anchor="middle" x="293.5" y="-784" font-family="Helvetica,sans-Serif" font-size="10.00"> &#45;current_state</text>
<text text-anchor="middle" x="293.5" y="-773" font-family="Helvetica,sans-Serif" font-size="10.00">&#45;previous_state</text>
</g>
<!-- Node18 -->
<g id="node18" class="node">
<title>Node18</title>
<g id="a_node18"><a xlink:href="structtshirt_1_1tshirt__state.html" target="_top" xlink:title="Structure for containing and organizing the state values of the Tshirt hydrological model.">
<polygon fill="white" stroke="black" points="170.5,-1436.5 170.5,-1537.5 301.5,-1537.5 301.5,-1436.5 170.5,-1436.5"/>
<text text-anchor="middle" x="236" y="-1525.5" font-family="Helvetica,sans-Serif" font-size="10.00">tshirt::tshirt_state</text>
<polyline fill="none" stroke="black" points="170.5,-1518.5 301.5,-1518.5 "/>
<text text-anchor="start" x="178.5" y="-1506.5" font-family="Helvetica,sans-Serif" font-size="10.00">+ soil_storage_meters</text>
<text text-anchor="start" x="178.5" y="-1495.5" font-family="Helvetica,sans-Serif" font-size="10.00">+ groundwater_storage</text>
<text text-anchor="start" x="178.5" y="-1484.5" font-family="Helvetica,sans-Serif" font-size="10.00">_meters</text>
<text text-anchor="start" x="178.5" y="-1473.5" font-family="Helvetica,sans-Serif" font-size="10.00">+ nash_cascade_storeage</text>
<text text-anchor="start" x="178.5" y="-1462.5" font-family="Helvetica,sans-Serif" font-size="10.00">_meters</text>
<polyline fill="none" stroke="black" points="170.5,-1455.5 301.5,-1455.5 "/>
<text text-anchor="start" x="178.5" y="-1443.5" font-family="Helvetica,sans-Serif" font-size="10.00">+ tshirt_state()</text>
</a>
</g>
</g>
<!-- Node18&#45;&gt;Node17 -->
<g id="edge22" class="edge">
<title>Node18&#45;&gt;Node17</title>
<path fill="none" stroke="#404040" d="M230.81,-1436.24C228.3,-1399.54 227.58,-1348.62 237,-1305 237.5,-1302.7 238.1,-1300.38 238.79,-1298.07"/>
<polygon fill="none" stroke="#404040" points="238.84,-1297.93 237.06,-1290.95 242.83,-1286.62 244.61,-1293.6 238.84,-1297.93"/>
<text text-anchor="middle" x="247" y="-1331.5" font-family="Helvetica,sans-Serif" font-size="10.00"> +ptr</text>
</g>
</g>
</svg>
